<svg xmlns:ed="https://www.edrawsoft.com/xml/2017/SVGExtensions/" xmlns:xlink="http://www.w3.org/1999/xlink" width="763" ed:vSpacing="30" ed:name="Page-1" ed:hSpacing="30" xmlns="http://www.w3.org/2000/svg" height="252" viewBox="0 0 763 252" id="page100" xmlns:ev="http://www.w3.org/2001/xml-events"><style type="text/css"><![CDATA[
g[ed\:togtopicid],g[ed\:hyperlink],g[ed\:comment],g[ed\:note] {cursor:pointer;}
g[id] {-moz-user-select: none;-ms-user-select: none;user-select: none;}
svg text::selection,svg tspan::selection{background-color: #4285f4;color: #ffffff;fill: #ffffff;}
.st1 {fill:#000000;font-family:宋体;font-size:14pt}
.st3 {fill:#454545;font-family:宋体;font-size:10pt}
.st2 {fill:#454545;font-family:宋体;font-size:12pt}
]]></style><defs><linearGradient y2="100%" x2="0%" x1="0%" id="lg1" y1="0%"><stop offset="0" stop-color="#ffffff"/><stop offset="0.25" stop-color="#f0f5f0"/><stop offset="0.75" stop-color="#e1ebe1"/><stop offset="1" stop-color="#c8d7c8"/></linearGradient></defs><rect y="0" width="763" fill="#ffffff" x="0" height="252"/><path transform="matrix(1,0,0,1,169,99)" ed:tosuperid="102" stroke="#71666f" stroke-linejoin="round" fill="none" d="M-17.4,1.6C-2.5,-16.2,29,-27,70.3,-27" ed:parentid="101" stroke-linecap="round" id="103"/><path transform="matrix(1,0,0,1,169,160)" ed:tosuperid="104" stroke="#71666f" stroke-linejoin="round" fill="none" d="M-21.1,-8.4C-8.2,17.7,25.2,33.8,70.3,33.8" ed:parentid="101" stroke-linecap="round" id="105"/><path transform="matrix(1,0,0,1,388,64)" ed:tosuperid="106" stroke="#71666f" stroke-linejoin="round" fill="none" d="M-13.5,8.4L-0.5,8.4C-0.5,-1.7,5.1,-8.4,13.5,-8.4" ed:parentid="102" stroke-linecap="round" id="107"/><path transform="matrix(1,0,0,1,388,84)" ed:tosuperid="108" stroke="#71666f" stroke-linejoin="round" fill="none" d="M-0.5,-12C-0.5,2.4,5.1,12,13.5,12" ed:parentid="102" stroke-linecap="round" id="109"/><path transform="matrix(1,0,0,1,388,98)" ed:tosuperid="110" stroke="#71666f" stroke-linejoin="round" fill="none" d="M-0.5,-25.6C-0.5,5.1,5.1,25.6,13.5,25.6" ed:parentid="102" stroke-linecap="round" id="111"/><path transform="matrix(1,0,0,1,473,49)" ed:tosuperid="112" stroke="#71666f" stroke-linejoin="round" fill="none" d="M-13.5,6.8L-0.5,6.8C-0.5,-1.4,5.1,-6.8,13.5,-6.8" ed:parentid="106" stroke-linecap="round" id="113"/><path transform="matrix(1,0,0,1,473,62)" ed:tosuperid="114" stroke="#71666f" stroke-linejoin="round" fill="none" d="M-0.5,-6.8C-0.5,1.4,5.1,6.8,13.5,6.8" ed:parentid="106" stroke-linecap="round" id="115"/><path transform="matrix(1,0,0,1,388,185)" ed:tosuperid="116" stroke="#71666f" stroke-linejoin="round" fill="none" d="M-13.5,8.4L-0.5,8.4C-0.5,-1.7,5.1,-8.4,13.5,-8.4" ed:parentid="104" stroke-linecap="round" id="117"/><path transform="matrix(1,0,0,1,388,199)" ed:tosuperid="118" stroke="#71666f" stroke-linejoin="round" fill="none" d="M-0.5,-5.2C-0.5,1,5.1,5.2,13.5,5.2" ed:parentid="104" stroke-linecap="round" id="119"/><path transform="matrix(1,0,0,1,388,213)" ed:tosuperid="120" stroke="#71666f" stroke-linejoin="round" fill="none" d="M-0.5,-18.8C-0.5,3.8,5.1,18.8,13.5,18.8" ed:parentid="104" stroke-linecap="round" id="121"/><g transform="matrix(1,0,0,1,21,101)" ed:topictype="mainidea" ed:width="155" ed:layout="rightmap" id="101" ed:height="50.8"><path stroke="#71666f" stroke-linejoin="round" fill="#ebeaeb" d="M4,0L151,0C153.7,0,155,1.3,155,4L155,46.8C155,49.5,153.7,50.8,151,50.8L4,50.8C1.3,50.8,0,49.5,0,46.8L0,4C0,1.3,1.3,0,4,0z"/><text class="st1"><tspan y="33.9" style="white-space:pre" x="20">Java数据类型</tspan></text></g><g transform="matrix(1,0,0,1,239,55)" ed:width="135" ed:parentid="101" id="102" ed:height="34.4"><path stroke="#f2f0f0" stroke-linejoin="round" fill="#f2f0f0" d="M4,0L131,0C133.7,0,135,1.3,135,4L135,30.4C135,33.1,133.7,34.4,131,34.4L4,34.4C1.3,34.4,0,33.1,0,30.4L0,4C0,1.3,1.3,0,4,0z"/><text class="st2"><tspan y="24.5" style="white-space:pre" x="18">基本数据类型</tspan></text></g><g transform="matrix(1,0,0,1,239,177)" ed:width="135" ed:parentid="101" id="104" ed:height="34.4"><path stroke="#f2f0f0" stroke-linejoin="round" fill="#f2f0f0" d="M4,0L131,0C133.7,0,135,1.3,135,4L135,30.4C135,33.1,133.7,34.4,131,34.4L4,34.4C1.3,34.4,0,33.1,0,30.4L0,4C0,1.3,1.3,0,4,0z"/><text class="st2"><tspan y="24.5" style="white-space:pre" x="18">引用数据类型</tspan></text></g><g transform="matrix(1,0,0,1,401,35)" ed:width="58.8" ed:parentid="102" id="106" ed:height="20.7"><path stroke="#71666f" stroke-linejoin="round" fill="none" d="M0,20.7L58.8,20.7"/><text class="st3"><tspan y="16.8" style="white-space:pre" x="8">数值型</tspan></text></g><g transform="matrix(1,0,0,1,401,75)" ed:width="114.8" ed:parentid="102" id="108" ed:height="20.7"><path stroke="#71666f" stroke-linejoin="round" fill="none" d="M0,20.7L114.8,20.7"/><text class="st3"><tspan y="16.8" style="white-space:pre" x="8">字符型（char）</tspan></text></g><g transform="matrix(1,0,0,1,401,103)" ed:width="136.4" ed:parentid="102" id="110" ed:height="20.7"><path stroke="#71666f" stroke-linejoin="round" fill="none" d="M0,20.7L136.4,20.7"/><text class="st3"><tspan y="16.8" style="white-space:pre" x="8">布尔型（boolean）</tspan></text></g><g transform="matrix(1,0,0,1,487,21)" ed:width="255.6" ed:parentid="106" id="112" ed:height="20.7"><path stroke="#71666f" stroke-linejoin="round" fill="none" d="M0,20.7L255.6,20.7"/><text class="st3"><tspan y="16.8" style="white-space:pre" x="8">整数类型（byte、short、int、long）</tspan></text></g><g transform="matrix(1,0,0,1,487,48)" ed:width="192.4" ed:parentid="106" id="114" ed:height="20.7"><path stroke="#71666f" stroke-linejoin="round" fill="none" d="M0,20.7L192.4,20.7"/><text class="st3"><tspan y="16.8" style="white-space:pre" x="8">浮点类型（float、double）</tspan></text></g><g transform="matrix(1,0,0,1,401,156)" ed:width="94.8" ed:parentid="104" id="116" ed:height="20.7"><path stroke="#71666f" stroke-linejoin="round" fill="none" d="M0,20.7L94.8,20.7"/><text class="st3"><tspan y="16.8" style="white-space:pre" x="8">类（class）</tspan></text></g><g transform="matrix(1,0,0,1,401,184)" ed:width="137.2" ed:parentid="104" id="118" ed:height="20.7"><path stroke="#71666f" stroke-linejoin="round" fill="none" d="M0,20.7L137.2,20.7"/><text class="st3"><tspan y="16.8" style="white-space:pre" x="7">接口（interface）</tspan></text></g><g transform="matrix(1,0,0,1,401,211)" ed:width="45.2" ed:parentid="104" id="120" ed:height="20.7"><path stroke="#71666f" stroke-linejoin="round" fill="none" d="M0,20.7L45.2,20.7"/><text class="st3"><tspan y="16.8" style="white-space:pre" x="8">数组</tspan></text></g><symbol id="plus"><path fill="url(#lg1)" d="M11,6C11,8.8,8.8,11,6,11C3.2,11,1,8.8,1,6C1,3.2,3.2,1,6,1C8.8,1,11,3.2,11,6z"/><path stroke-width="0.7" stroke="#46a000" fill="none" d="M11,6C11,8.8,8.8,11,6,11C3.2,11,1,8.8,1,6C1,3.2,3.2,1,6,1C8.8,1,11,3.2,11,6zM3,6L9,6M6,3L6,9"/></symbol><symbol id="minus"><path fill="url(#lg1)" d="M11,6C11,8.8,8.8,11,6,11C3.2,11,1,8.8,1,6C1,3.2,3.2,1,6,1C8.8,1,11,3.2,11,6z"/><path stroke-width="0.7" stroke="#46a000" fill="none" d="M11,6C11,8.8,8.8,11,6,11C3.2,11,1,8.8,1,6C1,3.2,3.2,1,6,1C8.8,1,11,3.2,11,6zM3,6L9,6"/></symbol><g transform="translate(177,120)" ed:togtopicid="101"></g></svg>