<svg viewBox="161.572 77.728 273.43 298.147" xmlns="http://www.w3.org/2000/svg" xmlns:bx="https://boxy-svg.com">
  <defs>
    <bx:grid x="0" y="0" width="75.143" height="38.864"></bx:grid>
  </defs>
  <g style="" transform="matrix(1.410433, -0.000076, 0.003134, 1.122331, -58.820507, -14.43837)">
    <path style="fill: none; paint-order: fill; stroke-linejoin: round; stroke-linecap: round; stroke-width: 31.7099px; stroke: rgb(0, 153, 255);" d="M 253.086 327.334 C 234.24 327.334 218.913 307.475 218.778 282.847 C 218.578 247.492 252.432 210.948 252.432 210.948 M 253.086 327.334 C 271.948 327.334 287.053 307.475 286.91 282.847 C 286.711 247.492 252.432 210.948 252.432 210.948 M 173.273 330.08 L 172.795 327.334 L 171.515 99.324 L 252.719 204.597 L 306.884 133.045 L 332.411 99.324 L 333.693 327.334 L 333.877 330.093" transform="matrix(0.999938, 0.010953, -0.006935, 0.999986, 1.504726, -2.76475)"></path>
    <circle style="fill: rgb(255, 69, 0);" cx="188.445" cy="209.417" r="25" transform="matrix(0.709002, 0.000048, -0.00198, 0.891003, 75.334869, 25.567995)"></circle>
    <circle style="fill: rgb(255, 69, 0);" cx="315.669" cy="209.417" r="25" transform="matrix(0.709005, -0.00244, 0, 0.891, 74.919724, 26.037573)"></circle>
  </g>
</svg>