<svg x="0" y="0" width="60" height="56.70133729569258" filtersec="colorsb5938337952" class="image-svg-svg primary">
<svg xmlns="http://www.w3.org/2000/svg" viewBox="0 0 181.71 171.72">
<g><g><path d="M.41 137.72a138.08 138.08 0 0 1 4.32-13.77q2.77-7.58 6.4-15.81t8-16.7q4.36-8.47 9-16.5t9.62-15.15A157.43 157.43 0 0 1 47.5 47q1.39-1.55 3.46-3.83t4.64-4.73Q58.17 36 61 33.63a61.89 61.89 0 0 1 5.66-4.32 36 36 0 0 1 5.54-3.1 12.46 12.46 0 0 1 5-1.18 14.73 14.73 0 0 1 5.66 1.06 12.46 12.46 0 0 1 4.4 3 13.82 13.82 0 0 1 2.85 4.68 17 17 0 0 1 1 6 19 19 0 0 1-.2 2.77q-.2 1.39-.53 2.85l-9 45.46q1.22-1.87 3.42-5.09t5-7.17l5.79-8.23q3-4.28 5.91-8.27t5.34-7.29q2.44-3.3 4-5.34l1.47-1.87q1.47-1.87 3.59-4.4t4.68-5.3q2.57-2.77 5.42-5.46a57.69 57.69 0 0 1 5.78-4.81 36.57 36.57 0 0 1 5.79-3.46 12.8 12.8 0 0 1 5.46-1.34 5.63 5.63 0 0 1 3.26.9 6.78 6.78 0 0 1 2.12 2.4 11.08 11.08 0 0 1 1.14 3.54 26.73 26.73 0 0 1 .33 4.24 43 43 0 0 1-.57 6.93q-.57 3.5-1.3 6.35-.41 2.28-1.1 6.52t-1.63 9.74q-.94 5.5-2 11.89t-2.16 13q-1.1 6.6-2.2 13t-2 12q-.94 5.58-1.71 10t-1.26 6.84q-.24 1.14-.77 3.1a17.74 17.74 0 0 1-1.55 3.83 11.09 11.09 0 0 1-2.69 3.26 6.22 6.22 0 0 1-4.11 1.39 4.17 4.17 0 0 1-2.48-.86 9.44 9.44 0 0 1-2.12-2.16 11 11 0 0 1-1.47-2.81 10.43 10.43 0 0 1-.61-2.73l16.95-80.5q.24-1.14.41-2a9.52 9.52 0 0 0 .16-1.71 6.08 6.08 0 0 0-.2-1.63c-.14-.49-.26-.95-.37-1.38s-.33-.92-.49-1.3a72.26 72.26 0 0 0-7.86 7q-4.2 4.28-8.47 9.53t-8.55 11.16q-4.28 5.91-8.11 11.86Q98.42 88.91 95 94l-7 10.31q-3.5 5.18-6.8 10.35t-6 9.9a44 44 0 0 0-2.69 5.87q-1.38 3.59-3.06 7a32.9 32.9 0 0 1-3.58 5.87 5.5 5.5 0 0 1-4.36 2.44 7.64 7.64 0 0 1-3.14-.57 5.18 5.18 0 0 1-2-1.51 5.94 5.94 0 0 1-1.06-2.2 10.88 10.88 0 0 1-.33-2.73 19.58 19.58 0 0 1 .37-3.75q.37-1.87.78-3.59 1.71-7.17 3.58-14.26t3.87-14.5q2-7.41 4.11-15.36T72 70.42q.57-2.52 1.3-5.66t1.39-6.35q.65-3.22 1.06-6.23a40.44 40.44 0 0 0 .41-5.38 14 14 0 0 0-.33-3.38q-.33-1.26-1.22-1.26a11.51 11.51 0 0 0-6.36 2.24 39.57 39.57 0 0 0-6.76 5.91 79.89 79.89 0 0 0-6.76 8.39q-3.34 4.73-6.36 9.74t-5.62 9.9q-2.61 4.89-4.48 8.8-.41.81-1.18 2.24t-2 4q-1.26 2.57-3.1 6.56T27.66 110q-2.48 6.11-5.74 14.58t-7.33 19.88a6.49 6.49 0 0 1-2.59 3.2 6.74 6.74 0 0 1-3.79 1.22Q4 148.88 2 146.6a8.23 8.23 0 0 1-2-5.6 14.76 14.76 0 0 1 .41-3.28z" fill="#FF0000"></path>
<path d="M11.12 108.14q3.63-8.23 8-16.7c.47-.92 1-1.82 1.43-2.73q-.06-1.43-.07-2.87c0-7.27-20.5-7.24-20.46 0a83.62 83.62 0 0 0 6.83 32.59c1.3-3.34 2.72-6.77 4.27-10.29zM181.21 76.37c-3.46-31.11-25.05-58.06-54-69.45A100.33 100.33 0 0 0 90.88 0c-2.94 0-10.23.9-10.23 5.19s7.29 5.17 10.23 5.19c1 0 1.91 0 2.87.05l1.69.1c1.66.14 3.32.35 5 .59.92.14 1.83.3 2.75.47l.55.1.62.15c2.08.48 4.14 1.08 6.18 1.72a55.07 55.07 0 0 1 8.83 3.62 70.4 70.4 0 0 1 9.17 5.36c1.74 1.21 3.4 2.5 5 3.84a34.19 34.19 0 0 1 3.91-2.19 12.8 12.8 0 0 1 5.46-1.34 5.63 5.63 0 0 1 3.26.9 6.78 6.78 0 0 1 2.12 2.4 11.08 11.08 0 0 1 1.14 3.54 26.73 26.73 0 0 1 .33 4.24 43 43 0 0 1-.57 6.93c-.15.91-.31 1.78-.47 2.63a81.48 81.48 0 0 1 6.88 13c11.77 28 5 61.82-16.2 83.48a74.47 74.47 0 0 1-16.07 12.47 65 65 0 0 1-19.37 7.53c.68-.17-1.59.3-1.69.32-.92.17-1.84.3-2.76.44s-1.86.24-2.79.34l-1.73.15c-1.68.09-3.36.11-5 .1-1 0-1.91 0-2.86-.08h-.38l-1.69-.24a63.16 63.16 0 0 1-19.38-5c-18.47-8-32.47-23.39-39.68-41.78q-1.85 4.65-4.05 10.38-2.07 5.39-4.48 12A88.33 88.33 0 0 0 46.34 161c30.28 16 69.22 13.77 97.63-5.14a84.93 84.93 0 0 0 37.24-79.49z" fill="#0000FF"></path><path d="M37.19 133.86a78.94 78.94 0 0 1-16.72-48c0-7.27-20.5-7.24-20.46 0 .16 27.06 13.39 51.8 34.55 67.7.71-6.49 1.62-13.15 2.63-19.7z" fill="#0000FF"></path>
</g></g></svg></svg>