<svg viewBox="0 0 60 60" x="0" y="0" width="60" height="60" filtersec="colorsf5206003772" class="image-svg-svg initial"><g mask="url(#1c37301e-2f9d-45a9-85e4-ba635af58ed0)">
<svg xmlns:x="http://ns.adobe.com/Extensibility/1.0/" xmlns:i="http://ns.adobe.com/AdobeIllustrator/10.0/" xmlns:graph="http://ns.adobe.com/Graphs/1.0/" xmlns="http://www.w3.org/2000/svg" xmlns:xlink="http://www.w3.org/1999/xlink" version="1.1" x="0" y="0" viewBox="-0.02499532699584961 -0.02500295639038086 90.04999542236328 90.04999542236328" enable-background="new 0 0 90 90" xml:space="preserve" width="60" height="60" filter="url(#colors7898563588)"><g><g i:extraneous="self"><g><path d="M80.5,45c0,19.6-15.9,35.5-35.5,35.5C25.4,80.5,9.5,64.6,9.5,45C9.5,25.4,25.4,9.5,45,9.5C64.6,9.5,80.5,25.4,80.5,45z"></path><path d="M88.3,39.1c-4.1-6.5-7-13-8.6-20.2c-1-4.3-4.3-7.6-8.6-8.6c-7.3-1.6-13.7-4.4-20.2-8.6c-3.6-2.3-8.2-2.3-11.8,0     c-6.5,4.1-13,7-20.2,8.6c-4.3,1-7.6,4.3-8.6,8.6c-1.6,7.2-4.4,13.7-8.6,20.2c-2.3,3.6-2.3,8.2,0,11.8c4.1,6.5,7,13,8.6,20.2     c1,4.3,4.3,7.6,8.6,8.6c7.3,1.6,13.7,4.4,20.2,8.6c3.6,2.3,8.2,2.3,11.8,0c6.5-4.1,13-7,20.2-8.6c4.3-1,7.6-4.3,8.6-8.6     c1.6-7.3,4.4-13.7,8.6-20.2C90.6,47.3,90.6,42.7,88.3,39.1z M45,82.5C24.3,82.5,7.5,65.7,7.5,45C7.5,24.3,24.3,7.5,45,7.5     c20.7,0,37.5,16.8,37.5,37.5C82.5,65.7,65.7,82.5,45,82.5z"></path><path d="M80.5,45c0,19.6-15.9,35.5-35.5,35.5C25.4,80.5,9.5,64.6,9.5,45C9.5,25.4,25.4,9.5,45,9.5C64.6,9.5,80.5,25.4,80.5,45z"></path><path d="M80.5,45c0,19.6-15.9,35.5-35.5,35.5C25.4,80.5,9.5,64.6,9.5,45C9.5,25.4,25.4,9.5,45,9.5C64.6,9.5,80.5,25.4,80.5,45z"></path></g></g></g></svg>
<g fill="#ffffff" transform="translate(15.334999999999997,21.3353125)"><g transform="translate(0, 0)"><g><path d="M30.31-3.47Q30.73-3.01 30.73-2.77L30.73-2.77Q30.73-2.52 30.35-2.21L30.35-2.21Q29.86-1.93 28.74-1.93L28.74-1.93Q27.86-1.93 27.16-2.17Q26.46-2.42 26.11-2.94L26.11-2.94Q25.48-3.89 25.10-5.97Q24.71-8.05 24.29-11.59L24.29-11.59L23.87-14.88Q23.24-13.48 22.33-11.24L22.33-11.24Q21.14-8.26 20.35-6.72Q19.57-5.18 18.76-4.59L18.76-4.59Q17.96-4.03 16.59-4.03L16.59-4.03Q15.23-4.03 14.42-4.59L14.42-4.59Q13.51-5.25 12.48-7.05Q11.45-8.86 9.66-12.36L9.66-12.36L8.29-15.05L7.88-11.80Q7.46-8.29 7.05-6.11Q6.65-3.92 6.02-2.94L6.02-2.94Q5.67-2.42 4.97-2.17Q4.27-1.93 3.40-1.93L3.40-1.93Q2.28-1.93 1.79-2.21L1.79-2.21Q1.40-2.52 1.40-2.77L1.40-2.77Q1.40-3.01 1.82-3.47L1.82-3.47Q3.29-5.11 3.99-7.58Q4.69-10.05 5.32-14.07L5.32-14.07Q5.67-16.49 6.06-18.20L6.06-18.20Q6.20-18.80 6.70-19.04Q7.21-19.29 7.84-19.25L7.84-19.25Q8.19-19.25 8.40-19.22L8.40-19.22L8.47-19.18Q9.28-19.01 9.63-18.20L9.63-18.20Q10.68-15.61 12.53-12.79Q14.39-9.98 16.56-7.70L16.56-7.70Q19.81-11.52 22.51-18.20L22.51-18.20Q22.86-19.01 23.66-19.18L23.66-19.18L23.73-19.22Q23.94-19.25 24.29-19.25L24.29-19.25Q24.92-19.29 25.43-19.04Q25.94-18.80 26.08-18.20L26.08-18.20Q26.39-16.73 26.85-14.07L26.85-14.07Q27.48-10.05 28.18-7.58Q28.88-5.11 30.31-3.47L30.31-3.47Z" transform="translate(-1.4000000000000001, 19.254375000000003)"></path></g></g></g></g><mask id="1c37301e-2f9d-45a9-85e4-ba635af58ed0"><g><svg xmlns:x="http://ns.adobe.com/Extensibility/1.0/" xmlns:i="http://ns.adobe.com/AdobeIllustrator/10.0/" xmlns:graph="http://ns.adobe.com/Graphs/1.0/" xmlns="http://www.w3.org/2000/svg" xmlns:xlink="http://www.w3.org/1999/xlink" version="1.1" x="0" y="0" viewBox="-0.02499532699584961 -0.02500295639038086 90.04999542236328 90.04999542236328" enable-background="new 0 0 90 90" xml:space="preserve" width="60" height="60" stroke="#ffffff" fill="#ffffff"><g><g i:extraneous="self"><g><path d="M80.5,45c0,19.6-15.9,35.5-35.5,35.5C25.4,80.5,9.5,64.6,9.5,45C9.5,25.4,25.4,9.5,45,9.5C64.6,9.5,80.5,25.4,80.5,45z"></path><path d="M88.3,39.1c-4.1-6.5-7-13-8.6-20.2c-1-4.3-4.3-7.6-8.6-8.6c-7.3-1.6-13.7-4.4-20.2-8.6c-3.6-2.3-8.2-2.3-11.8,0     c-6.5,4.1-13,7-20.2,8.6c-4.3,1-7.6,4.3-8.6,8.6c-1.6,7.2-4.4,13.7-8.6,20.2c-2.3,3.6-2.3,8.2,0,11.8c4.1,6.5,7,13,8.6,20.2     c1,4.3,4.3,7.6,8.6,8.6c7.3,1.6,13.7,4.4,20.2,8.6c3.6,2.3,8.2,2.3,11.8,0c6.5-4.1,13-7,20.2-8.6c4.3-1,7.6-4.3,8.6-8.6     c1.6-7.3,4.4-13.7,8.6-20.2C90.6,47.3,90.6,42.7,88.3,39.1z M45,82.5C24.3,82.5,7.5,65.7,7.5,45C7.5,24.3,24.3,7.5,45,7.5     c20.7,0,37.5,16.8,37.5,37.5C82.5,65.7,65.7,82.5,45,82.5z"></path><path d="M80.5,45c0,19.6-15.9,35.5-35.5,35.5C25.4,80.5,9.5,64.6,9.5,45C9.5,25.4,25.4,9.5,45,9.5C64.6,9.5,80.5,25.4,80.5,45z"></path><path d="M80.5,45c0,19.6-15.9,35.5-35.5,35.5C25.4,80.5,9.5,64.6,9.5,45C9.5,25.4,25.4,9.5,45,9.5C64.6,9.5,80.5,25.4,80.5,45z"></path></g></g></g></svg><g transform="translate(15.334999999999997,21.3353125)" fill="#000000"><g transform="translate(0, 0)"><g><path d="M30.31-3.47Q30.73-3.01 30.73-2.77L30.73-2.77Q30.73-2.52 30.35-2.21L30.35-2.21Q29.86-1.93 28.74-1.93L28.74-1.93Q27.86-1.93 27.16-2.17Q26.46-2.42 26.11-2.94L26.11-2.94Q25.48-3.89 25.10-5.97Q24.71-8.05 24.29-11.59L24.29-11.59L23.87-14.88Q23.24-13.48 22.33-11.24L22.33-11.24Q21.14-8.26 20.35-6.72Q19.57-5.18 18.76-4.59L18.76-4.59Q17.96-4.03 16.59-4.03L16.59-4.03Q15.23-4.03 14.42-4.59L14.42-4.59Q13.51-5.25 12.48-7.05Q11.45-8.86 9.66-12.36L9.66-12.36L8.29-15.05L7.88-11.80Q7.46-8.29 7.05-6.11Q6.65-3.92 6.02-2.94L6.02-2.94Q5.67-2.42 4.97-2.17Q4.27-1.93 3.40-1.93L3.40-1.93Q2.28-1.93 1.79-2.21L1.79-2.21Q1.40-2.52 1.40-2.77L1.40-2.77Q1.40-3.01 1.82-3.47L1.82-3.47Q3.29-5.11 3.99-7.58Q4.69-10.05 5.32-14.07L5.32-14.07Q5.67-16.49 6.06-18.20L6.06-18.20Q6.20-18.80 6.70-19.04Q7.21-19.29 7.84-19.25L7.84-19.25Q8.19-19.25 8.40-19.22L8.40-19.22L8.47-19.18Q9.28-19.01 9.63-18.20L9.63-18.20Q10.68-15.61 12.53-12.79Q14.39-9.98 16.56-7.70L16.56-7.70Q19.81-11.52 22.51-18.20L22.51-18.20Q22.86-19.01 23.66-19.18L23.66-19.18L23.73-19.22Q23.94-19.25 24.29-19.25L24.29-19.25Q24.92-19.29 25.43-19.04Q25.94-18.80 26.08-18.20L26.08-18.20Q26.39-16.73 26.85-14.07L26.85-14.07Q27.48-10.05 28.18-7.58Q28.88-5.11 30.31-3.47L30.31-3.47Z" transform="translate(-1.4000000000000001, 19.254375000000003)"></path></g></g></g></g></mask></svg>