<svg width="640" height="480.00000000000006" xmlns="http://www.w3.org/2000/svg" xmlns:svg="http://www.w3.org/2000/svg">
 <!-- Created with SVG-edit - https://github.com/SVG-Edit/svgedit-->
 <g class="layer">
  <title>Layer 1</title>
  <line fill="none" fill-opacity="0" id="svg_9" stroke="#000000" stroke-dasharray="null" stroke-linecap="null" stroke-linejoin="round" stroke-width="5" transform="rotate(-1.47827 201.8 142.1)" x1="200.8" x2="202.8" y1="165.6" y2="118.6"/>
  <ellipse cx="326.45163" cy="204.51611" fill="none" fill-opacity="0" id="svg_17" rx="160.48389" ry="133.87097" stroke="#000000" stroke-dasharray="null" stroke-linecap="null" stroke-linejoin="round" stroke-width="5"/>
  <ellipse cx="125.64518" cy="37.58062" fill="none" fill-opacity="0" id="svg_19" rx="0" ry="0.80645" stroke="#000000" stroke-dasharray="null" stroke-linecap="null" stroke-linejoin="round" stroke-width="5"/>
  <path d="m206.53787,293.21781c14.94517,13.5404 17.63439,16.93604 43.82943,29.42672c26.19504,12.49068 42.40923,13.76555 70.41679,15.19481c28.00756,1.42926 109.46183,-24.69658 122.63654,-41.75183c13.17471,-17.05525 47.02172,-55.86341 43.97956,-96.46279c-3.04216,-40.59938 -8.87362,-53.75547 -37.34429,-80.95657c-28.47067,-27.2011 -62.71161,-40.38645 -83.92687,-44.4746c-21.21526,-4.08815 -43.6788,-4.70564 -61.91312,-2.61099c-18.23432,2.09465 -30.56532,6.74971 -50.24753,13.70968c-19.68221,6.95997 -35.89907,19.36549 -51.62088,34.24625" fill="none" fill-opacity="0" id="svg_20" stroke="#000000" stroke-dasharray="null" stroke-linecap="null" stroke-linejoin="round" stroke-width="5"/>
 </g>
 <g class="layer">
  <title>图层 2</title>
  <path d="m170.90837,352.84655c-11.16086,-1.67948 -14.36398,-17.82084 -6.96681,-26.25056c8.09858,-11.971 23.59763,-19.52672 36.25531,-12.15457c0.5158,-45.61807 0.22398,-101.2459 0.30099,-146.86843c63.90551,-14.35698 127.89821,-28.23969 191.83129,-42.44558c-0.18421,50.43584 -1.29363,137.45284 -2.80196,151.61214c-1.50833,14.1593 -2.96417,29.50435 -7.37716,57.76126c-4.41299,28.25691 -7.12178,22.21766 -4.91264,9.67525c2.73129,-13.56539 1.96423,-17.16766 4.26719,-32.78357c2.30296,-15.61591 4.69053,-39.07411 6.28471,-56.00984c1.59418,-16.93573 0.66274,-79.38187 -0.35542,-119.01016c-29.54786,5.98468 -59.38645,12.6225 -89.01375,19.03418c-0.1768,47.3461 0.42071,94.7077 -0.44449,142.04142c-1.38367,13.05307 -13.2757,21.66842 -23.92664,24.26003c-10.83715,4.0296 -24.56344,-6.70525 -19.33676,-20.07868c6.38185,-15.75491 25.14489,-26.58024 39.54455,-17.81773c0.25579,-42.51149 0.11243,-85.02552 0.15013,-127.53818c-29.88991,6.88238 -59.81745,13.56854 -89.73625,20.29436c-0.55247,47.98308 0.46775,106.01076 -0.70592,153.96806c-4.11262,14.85398 -19.62421,24.37679 -33.05637,22.31058l0,0.00002z" fill="#000000" fill-opacity="0" id="svg_1" stroke="#000000" stroke-linejoin="round" stroke-width="5"/>
 </g>
</svg>