<svg width="800" height="600" xmlns="http://www.w3.org/2000/svg">
 <!-- Created with Method Draw - http://github.com/duopixel/Method-Draw/ -->
 <defs>
  <linearGradient spreadMethod="pad" y2="0" x2="1" y1="0" x1="0" id="svg_10">
   <stop offset="1" stop-color="#fff"/>
   <stop offset="1" stop-color="#000000"/>
  </linearGradient>
 </defs>
 <g>
  <title>background</title>
  <rect fill="url(#svg_10)" id="canvas_background" height="602" width="802" y="-1" x="-1"/>
  <g display="none" overflow="visible" y="0" x="0" height="100%" width="100%" id="canvasGrid">
   <rect fill="url(#gridpattern)" stroke-width="0" y="0" x="0" height="100%" width="100%"/>
  </g>
 </g>
 <g>
  <title>Layer 1</title>
  <text stroke="#000" transform="rotate(-6 338.6985473632808,258.35137939453165) matrix(1.69540997576819,0,0,1.3450966494442904,-224.0726461808776,-125.47261235741837) " font-style="italic" xml:space="preserve" text-anchor="start" font-family="'Palatino Linotype', 'Book Antiqua', Palatino, serif" font-size="206" id="svg_6" y="362.71504" x="143.040076" stroke-opacity="null" fill="#8181f4">Blue</text>
  <path stroke="#000" id="svg_29" d="m240.956976,132.842687c0,0 9.773132,2.471147 12.094299,11.014152c0,0 2.076766,3.318387 1.465966,5.083475c-0.6108,1.76505 -1.588166,2.329889 -1.832466,2.541718c0,0 1.221667,-1.623908 -2.931933,-4.236236c0,0 -2.1379,-0.42362 -2.565466,-0.847239c-0.427567,-0.42362 -6.719033,-1.835698 -8.062866,1.694479c-1.3438,3.530216 -1.6492,9.460892 -1.465966,9.743292c0.183233,0.2824 6.413633,5.648315 6.963366,7.201574c0.549733,1.55326 3.4817,4.730388 4.764433,4.659817c1.2827,-0.070571 4.336833,-0.070571 5.130899,-1.270859c0.794033,-1.200288 3.1152,-1.341469 3.664933,0c0.549733,1.34143 0.3665,1.270859 0.3665,1.270859c0,0 1.954633,-0.494191 2.565466,1.270859c0.6108,1.765089 -0.916267,2.541718 -1.0995,2.541718c-0.183233,0 1.160567,-2.682938 -0.733,-2.118099c0,0 -1.099467,0.052967 -1.099467,-0.42362c0,-0.476587 0.641367,2.48879 0,2.541718c0,0 -2.153166,-2.753509 -2.565466,-1.270859c0,0 -1.374333,0.317724 -1.832466,0.42362c-0.4581,0.105895 -0.3665,0.42362 -0.3665,0.42362c0,0 -1.1911,0.529515 -0.366467,2.118099c0,0 0,0.582482 -0.3665,0.847278c-0.3665,0.264758 0.229067,1.535617 1.832466,0.42362c0,0 0.4123,-0.42362 0.3665,0c-0.045833,0.42362 -1.649233,2.700581 -3.664933,-0.42362c0,0 -0.733,-2.382895 0.3665,-2.965377c1.099467,-0.582482 -0.3665,-1.747446 -1.832466,-0.847239c0,0 -0.091633,1.694479 0.366467,2.118099c0.458133,0.42362 -0.7788,0.052967 -1.099467,-0.42362c-0.320667,-0.476548 -0.733,1.006102 -0.733,1.270859c0,0.264758 -0.4123,1.164964 -0.732967,0.847278c-0.3207,-0.317724 -3.344266,-0.688416 -3.298466,-0.423658c0.045833,0.264796 -1.420133,1.376793 -1.832466,0.847278c-0.4123,-0.529554 -2.702866,-3.230134 -2.931933,-2.965377c-0.229067,0.264758 1.5576,3.230134 2.565466,3.812616c1.007833,0.582443 5.222533,0.953135 6.596866,-0.42362c0,0 2.107333,-0.476587 2.198966,0c0,0 2.3822,1.111997 2.198966,1.694479c-0.183267,0.582482 -0.183267,0.264758 -0.3665,0c-0.183233,-0.264796 -1.695033,-1.217931 -1.832466,-0.847239c-0.137433,0.370653 0,0.42362 0,0.42362c0,0 1.9241,0.63541 1.832466,0.847239c0,0 2.244766,1.05903 1.832466,3.388958c0,0 -0.687167,0.582482 -0.733,0c-0.0458,-0.582482 0.274867,-2.171066 -1.099467,-2.118099c0,0 -0.229067,0.847239 -1.099467,0.42362c-0.870433,-0.42362 0.5039,-1.323826 -4.031433,-0.847239c0,0 0.183233,1.006102 0.732967,1.270859c0.549733,0.264758 1.466,0.264758 1.466,1.270859c0,0 0.595533,0.847239 0,1.694479c0,0 -0.3665,0.264758 -0.3665,0c0,-0.264758 0.3665,-1.535617 -1.465966,-2.118099c-1.8325,-0.582482 -1.466,-0.42362 -1.466,-0.42362c0,0 0.3207,2.541718 -0.3665,2.541718c-0.687167,0 0.458133,1.588584 1.8325,0.847239c0,0 0.1374,-0.63541 0.366467,-0.42362c0.229067,0.211829 -1.145267,3.283063 -3.664933,-0.42362c0,0 -0.8246,-1.959236 0,-2.541718c0,0 0.549733,-1.959236 -2.198966,-1.270859c0,0 -1.145267,0.211791 -1.099467,0c0.0458,-0.211829 -0.183233,1.006102 0,1.270859c0.183233,0.264758 -2.153166,-0.582482 -2.198966,-0.847239l-0.732967,0c0,0 0.427567,2.471147 0.732967,2.541718c0.3054,0.070571 -1.404866,-1.200288 -1.832466,-2.118099c0,0 0,1.76505 0.3665,2.118099c0.3665,0.353049 -1.649233,-1.906308 -1.465966,-2.118099c0,0 0.061067,2.259318 0.732967,3.388958c0.6719,1.12964 -1.465966,-1.05903 -1.832466,-1.694479c0,0 -0.366467,0.2824 0,0.847239c0.3665,0.564839 -1.221633,-0.564839 -1.465966,-2.118099c0,0 -1.0384,-0.988459 -1.465966,-1.270859c0,0 0.061067,2.400499 0.3665,2.541718c0,0 -0.855167,-0.776668 -1.0995,-1.694479c0,0 -0.488633,0.847239 -0.3665,1.270859c0,0 -1.404866,-1.835698 -1.832466,-3.388958c-0.427567,-1.55326 -0.366467,0.42362 -0.366467,0.42362c0,0 -0.855167,-0.141258 -1.466,-2.965338c0,0 -3.542766,4.306769 -4.764399,4.659817c-1.221633,0.35301 1.465966,-1.694479 1.465966,-1.694479c0,0 -2.0157,0.70602 -2.198966,1.270859c0,0 0.183267,-0.776668 1.0995,-1.694479c0.916233,-0.917849 -1.0995,-0.42362 -1.0995,-0.42362c0,0 -0.427567,-0.141258 -0.366467,-4.659856c0,0 -2.748733,3.388996 -4.397933,3.388996c-1.649233,0 1.527066,-1.412117 1.832466,-2.541757c0.3054,-1.12964 -0.6719,-0.77663 -1.0995,-0.42362c-0.427567,0.353049 -3.603833,2.471147 -3.664933,2.965377c-0.061067,0.494191 -0.366467,-0.847239 -0.366467,-0.847239c0,0 -0.733,0.42362 -1.466,0.42362c-0.732967,0 2.137866,-1.55326 2.565466,-2.541757c0.4276,-0.988459 -3.970333,1.765089 -5.497399,2.965377c0,0 -1.282733,0.494191 -1.465966,0c-0.183267,-0.494229 2.198966,-2.400499 2.198966,-2.541757c0,-0.141219 0.855133,-1.34143 -0.733,-0.42362c-1.588133,0.917849 -3.664933,0.211829 -5.130899,0.847239c-1.466,0.635449 -3.0541,2.612328 -5.130933,2.541757c-2.0768,-0.07061 -2.0763,2.965338 -5.863866,2.965338c-2.198966,0 -1.282733,0.988459 -2.198966,0.847239c-0.916233,-0.141219 1.099467,-1.270859 1.099467,-1.270859c0,0 -2.198966,0.847239 -2.565433,0.847239c-0.3665,0 -2.015733,0.070571 1.832433,-1.694479c0,0 -2.809766,0 -1.832433,-0.42362c0.9773,-0.42362 3.4206,-1.270859 3.298433,-1.694479c-0.1222,-0.42362 -2.626533,-0.353049 -1.832466,-0.847239c0.794033,-0.494229 5.130899,-2.329928 4.031433,-2.541757c-1.0995,-0.211791 -2.687633,-0.2824 -1.832466,-0.847239c0.855167,-0.564839 11.361265,-1.90627 12.827265,-3.388958c1.465966,-1.482688 5.253066,-5.789457 6.230366,-5.930676c0.977333,-0.141258 0,-1.200288 -0.732967,-0.847278c-0.733,0.353049 -1.4049,-0.211791 -1.0995,-2.541718c0.305433,-2.329889 -3.143466,5.109208 -5.130899,2.541718c-1.0384,-1.34143 -0.244333,-2.329889 -1.465966,-2.118099c-1.221633,0.211829 -1.160567,-1.55326 -1.465966,-0.847239c-0.3054,0.70602 -2.870866,5.083475 -4.031433,4.659856c-1.160567,-0.42362 -0.3054,-0.70602 -1.0995,-0.847239c-0.794067,-0.141258 -1.3438,-0.42362 -1.465966,-1.270898c-0.122167,-0.847239 -0.855133,0.564878 -1.099467,-0.847239c-0.244333,-1.412079 -0.427567,-3.177129 -1.465966,-1.694479c-1.038433,1.482688 -1.404933,0.494229 -1.466,0c-0.061067,-0.494191 -2.260033,0.2824 -2.198933,-1.270859c0.061033,-1.55326 -2.1379,0.494229 -1.8325,-1.270859c0.305433,-1.76505 -1.857633,-0.239218 -1.465966,-1.694479c0.855167,-3.177167 -2.931933,-0.2824 -2.565433,-1.694479c0.366467,-1.412079 -1.7714,-0.2824 -1.466,-1.694479c0.305433,-1.412079 -2.033733,-0.921624 -1.832466,-2.118099c0.427567,-2.541757 -2.198933,-0.776668 -1.832466,-2.965377c0.3665,-2.18867 -1.667833,-0.014677 -1.465966,-1.694479c0.305433,-2.541718 -2.617866,-1.618707 -1.832466,-3.388958c1.221667,-2.753548 -1.256167,-1.569862 -0.733,-2.965338c0.794067,-2.118099 -5.101899,0.23498 -3.664933,-3.388996c0.671933,-1.694479 -3.990533,-2.822655 -1.832466,-4.236197c3.664933,-2.400499 -5.619533,-1.200288 -1.099467,-5.083437c4.214666,-2.259318 4.472933,-2.47211 -0.733,-2.118099c-2.0768,0.141219 -5.191999,-3.177167 -2.198933,-3.388996c2.993033,-0.211791 9.101232,-1.90627 2.198933,-2.541718c-6.902266,-0.63541 -7.146599,-3.530177 -4.397899,-3.388958c2.7487,0.141219 13.499165,0.141219 10.628299,-0.847239c-2.870866,-0.988459 -16.009331,-3.404135 -10.994799,-5.930676c2.3822,-1.200288 19.168164,5.181589 14.293232,0.847239c-0.794033,-0.70602 -8.551499,-3.247777 -11.361299,-6.777954c-2.809766,-3.530177 -2.260033,-4.024407 -0.732967,-3.388958c1.527066,0.63541 19.240798,9.955083 16.492198,6.777916c-0.488667,-0.564839 -10.628299,-6.142505 -12.094299,-11.014113c-1.465966,-4.871646 -0.061067,-3.600787 1.0995,-2.118137c1.160533,1.482688 17.828431,15.641341 15.026232,11.014152c-0.855167,-1.412079 -8.307166,-7.060316 -9.895332,-12.708631c-1.588166,-5.648276 -0.3665,-4.094978 0.733,-2.541718c1.099467,1.55326 18.083665,22.715371 15.392698,15.250349c-0.6108,-1.694479 -5.986066,-6.989745 -6.596866,-11.861391c-0.6108,-4.871646 0.9773,-3.035909 1.832466,-1.270859c0.855167,1.765089 12.888365,23.722782 13.193765,19.910205c0,0 0.0611,0.070571 0.3665,0c0.3054,-0.07061 -0.244333,-2.047527 0.3665,-1.694479c0,0 0.244333,-1.55326 0.732967,-1.270898c0.488667,0.2824 0.977333,0.07061 1.0995,-1.694479c0.122133,-1.76505 3.726,0.2824 4.764399,9.319673c0,0 0.733,0.916694 0.733,2.965338c0,1.059069 4.397899,6.213115 6.963366,5.930715c2.565466,-0.2824 6.230399,5.930676 7.329866,6.354296c1.099467,0.42362 3.542766,2.965338 7.329866,0.42362c3.7871,-2.541718 7.513132,-3.388958 4.397933,-3.812578c-3.1152,-0.42362 -2.504366,-1.835698 -1.099467,-2.118099c1.404866,-0.2824 7.513099,-0.42362 5.497399,-1.694479c-2.015733,-1.270898 -3.756966,-8.060794 -1.0995,-6.354335c1.0995,0.70602 5.004166,6.979806 4.397933,2.541718c-0.183267,-1.34143 -2.565466,-2.965338 -1.832466,-7.625155c0.732967,-4.659856 1.749233,-0.952634 1.832466,-0.42362c0.122167,0.77663 3.085433,10.419035 3.664933,5.507057c0.183233,-1.55326 -1.3438,-3.600787 -0.733,-9.319673c0.6108,-5.718847 1.465966,0 1.465966,0c0,0 1.7428,5.856523 1.466,8.896053c-0.1222,1.341469 1.588133,0.847239 1.465966,-1.694479c-0.1222,-2.541718 -1.0384,-8.119385 -0.3665,-8.048813c0.671933,0.07061 2.6851,3.781183 2.198966,6.777954c-0.183267,1.12964 2.626533,2.259318 -0.3665,4.659817c-2.993,2.400499 -6.230399,7.201574 -6.230399,7.201574c0,0 0.724133,3.102821 -2.931933,4.659817c-2.321133,0.988459 -0.3665,2.965338 -0.3665,2.965338z" stroke-opacity="null" stroke-width="0" fill="#b87ef7"/>
  <polyline stroke-linecap="round" id="svg_32" points="519.5,425.05 519.5,425.05 519.5,425.05 " stroke-opacity="null" stroke-width="0" stroke="#000" fill="none"/>
  <polyline stroke-linecap="round" id="svg_34" points="437.5,403.05 437.5,403.05 " stroke-opacity="null" stroke="#000" fill="none"/>
  <polyline stroke-linecap="round" id="svg_35" points="212.5,412.05 213.5,412.05 214.5,412.05 215.5,412.05 216.5,412.05 217.5,412.05 218.5,412.05 219.5,412.05 230.5,412.05 268.5,411.05 320.5,403.05 396.5,389.05 543.5,359.05 792.5,313.05 977.5,270.05 1028.5,153.05 988.5,160.05 954.5,168.05 929.5,170.05 912.5,173.05 898.5,176.05 889.5,178.05 876.5,181.05 854.5,186.05 835.5,189.05 818.5,190.05 802.5,191.05 788.5,191.05 779.5,191.05 766.5,191.05 759.5,191.05 754.5,191.05 747.5,191.05 738.5,191.05 727.5,191.05 705.5,194.05 674.5,200.05 639.5,205.05 599.5,209.05 567.5,213.05 540.5,217.05 510.5,222.05 486.5,226.05 462.5,230.05 447.5,233.05 434.5,236.05 425.5,239.05 418.5,242.05 418.5,246.05 418.5,248.05 419.5,250.05 421.5,250.05 423.5,251.05 423.5,252.05 417.5,249.05 409.5,248.05 398.5,245.05 397.5,245.05 396.5,245.05 393.5,245.05 390.5,249.05 387.5,253.05 384.5,255.05 380.5,257.05 374.5,257.05 371.5,257.05 366.5,256.05 360.5,252.05 355.5,248.05 349.5,245.05 342.5,243.05 330.5,235.05 319.5,228.05 314.5,224.05 313.5,222.05 312.5,221.05 313.5,222.05 323.5,226.05 338.5,230.05 370.5,238.05 397.5,244.05 418.5,247.05 438.5,253.05 449.5,257.05 466.5,263.05 486.5,271.05 499.5,274.05 508.5,276.05 510.5,276.05 511.5,276.05 513.5,276.05 513.5,275.05 " opacity="0.5" stroke-opacity="null" stroke="#000" fill="none"/>
 </g>
</svg>