<svg width="642" height="482" xmlns="http://www.w3.org/2000/svg">
 <!-- Created with Method Draw - http://github.com/duopixel/Method-Draw/ -->
 <defs>
  <linearGradient y2="0" x2="1" y1="0" x1="0" id="svg_3">
   <stop offset="0" stop-color="#007fff"/>
   <stop offset="1" stop-color="#ff8000"/>
  </linearGradient>
 </defs>
 <g>
  <title>background</title>
  <rect fill="#fff" id="canvas_background" height="484" width="644" y="-1" x="-1"/>
  <g display="none" overflow="visible" y="0" x="0" height="100%" width="100%" id="canvasGrid">
   <rect fill="url(#gridpattern)" stroke-width="0" y="1" x="1" height="480" width="640"/>
  </g>
 </g>
 <g>
  <title>Layer 1</title>
  <path stroke="#000" id="svg_2" d="m412.997318,239.806003c0,0 48.86567,9.460253 60.471504,42.165299c0,0 10.383834,12.703726 7.329834,19.460987c-3.054,6.757113 -7.940834,8.919478 -9.162334,9.73042c0,0 6.108334,-6.21678 -14.659668,-16.217513c0,0 -10.689501,-1.621737 -12.827334,-3.243473c-2.137833,-1.621737 -33.595169,-7.027574 -40.314336,6.486946c-6.719,13.514668 -8.246001,36.218981 -7.329834,37.300089c0.916167,1.081109 32.068169,21.623351 34.816836,27.56967c2.748667,5.946318 17.408501,18.109269 23.822168,17.839103c6.4135,-0.270167 21.684168,-0.270167 25.654502,-4.86521c3.970167,-4.595043 15.576001,-5.135524 18.324668,0c2.748667,5.135376 1.8325,4.86521 1.8325,4.86521c0,0 9.773167,-1.891903 12.827334,4.86521c3.054,6.75726 -4.581334,9.73042 -5.4975,9.73042c-0.916167,0 5.802834,-10.271048 -3.665,-8.108683c0,0 -5.497334,0.202772 -5.497334,-1.621737c0,-1.824509 3.206834,9.527795 0,9.73042c0,0 -10.765834,-10.541214 -12.827334,-4.86521c0,0 -6.871667,1.216339 -9.162334,1.621737c-2.2905,0.405397 -1.8325,1.621737 -1.8325,1.621737c0,0 -5.9555,2.027134 -1.832333,8.108683c0,0 0,2.229906 -1.8325,3.243621c-1.8325,1.013567 1.145333,5.878777 9.162334,1.621737c0,0 2.0615,-1.621737 1.8325,0c-0.229167,1.621737 -8.246167,10.338589 -18.324668,-1.621737c0,0 -3.665,-9.122397 1.8325,-11.352304c5.497334,-2.229906 -1.8325,-6.689719 -9.162334,-3.243473c0,0 -0.458167,6.486946 1.832333,8.108683c2.290667,1.621737 -3.894,0.202772 -5.497334,-1.621737c-1.603333,-1.824361 -3.665,3.851643 -3.665,4.86521c0,1.013567 -2.0615,4.459812 -3.664834,3.243621c-1.6035,-1.216339 -16.721335,-2.635451 -16.492335,-1.621884c0.229167,1.013714 -7.100667,5.270755 -9.162334,3.243621c-2.0615,-2.027281 -13.514334,-12.365871 -14.659668,-11.352304c-1.145333,1.013567 7.788001,12.365871 12.827334,14.595777c5.039167,2.229759 26.112669,3.64887 32.984336,-1.621737c0,0 10.536667,-1.824509 10.994834,0c0,0 11.911001,4.25704 10.994834,6.486946c-0.916333,2.229906 -0.916333,1.013567 -1.8325,0c-0.916167,-1.013714 -8.475167,-4.662585 -9.162334,-3.243473c-0.687167,1.418964 0,1.621737 0,1.621737c0,0 9.620501,2.432531 9.162334,3.243473c0,0 11.223834,4.054268 9.162334,12.973893c0,0 -3.435834,2.229906 -3.665,0c-0.229,-2.229906 1.374333,-8.311455 -5.497334,-8.108683c0,0 -1.145333,3.243473 -5.497334,1.621737c-4.352167,-1.621737 2.5195,-5.067982 -20.157168,-3.243473c0,0 0.916167,3.851643 3.664834,4.86521c2.748667,1.013567 7.330001,1.013567 7.330001,4.86521c0,0 2.977667,3.243473 0,6.486946c0,0 -1.8325,1.013567 -1.8325,0c0,-1.013567 1.8325,-5.878777 -7.329834,-8.108683c-9.162501,-2.229906 -7.330001,-1.621737 -7.330001,-1.621737c0,0 1.6035,9.73042 -1.8325,9.73042c-3.435834,0 2.290667,6.081549 9.162501,3.243473c0,0 0.687,-2.432531 1.832333,-1.621737c1.145333,0.810942 -5.726334,12.568495 -18.324668,-1.621737c0,0 -4.123,-7.500513 0,-9.73042c0,0 2.748667,-7.500513 -10.994834,-4.86521c0,0 -5.726334,0.810795 -5.497334,0c0.229,-0.810942 -0.916167,3.851643 0,4.86521c0.916167,1.013567 -10.765834,-2.229906 -10.994834,-3.243473l-3.664834,0c0,0 2.137833,9.460253 3.664834,9.73042c1.527,0.270167 -7.024334,-4.595043 -9.162334,-8.108683c0,0 0,6.757113 1.8325,8.108683c1.8325,1.35157 -8.246167,-7.297888 -7.329834,-8.108683c0,0 0.305333,8.649311 3.664834,12.973893c3.3595,4.324582 -7.329834,-4.054268 -9.162334,-6.486946c0,0 -1.832333,1.081109 0,3.243473c1.8325,2.162365 -6.108167,-2.162365 -7.329834,-8.108683c0,0 -5.192,-3.784101 -7.329834,-4.86521c0,0 0.305333,9.189792 1.8325,9.73042c0,0 -4.275834,-2.973307 -5.4975,-6.486946c0,0 -2.443167,3.243473 -1.8325,4.86521c0,0 -7.024334,-7.027574 -9.162334,-12.973893c-2.137833,-5.946318 -1.832333,1.621737 -1.832333,1.621737c0,0 -4.275834,-0.540775 -7.330001,-11.352156c0,0 -17.713835,16.487532 -23.822002,17.839103c-6.108167,1.351423 7.329834,-6.486946 7.329834,-6.486946c0,0 -10.078501,2.702845 -10.994834,4.86521c0,0 0.916333,-2.973307 5.4975,-6.486946c4.581167,-3.513787 -5.4975,-1.621737 -5.4975,-1.621737c0,0 -2.137833,-0.540775 -1.832333,-17.83925c0,0 -13.743668,12.97404 -21.989668,12.97404c-8.246167,0 7.635334,-5.405985 9.162334,-9.730567c1.527,-4.324582 -3.3595,-2.973159 -5.4975,-1.621737c-2.137833,1.35157 -18.019168,9.460253 -18.324668,11.352304c-0.305333,1.891903 -1.832333,-3.243473 -1.832333,-3.243473c0,0 -3.665,1.621737 -7.330001,1.621737c-3.664834,0 10.689334,-5.946318 12.827334,-9.730567c2.138,-3.784101 -19.851668,6.75726 -27.487002,11.352304c0,0 -6.413667,1.891903 -7.329834,0c-0.916333,-1.892051 10.994834,-9.189792 10.994834,-9.730567c0,-0.540628 4.275667,-5.135376 -3.665,-1.621737c-7.940667,3.513787 -18.324668,0.810942 -25.654502,3.243473c-7.330001,2.432679 -15.270501,10.000734 -25.654668,9.730567c-10.384001,-0.270314 -10.381501,11.352156 -29.319335,11.352156c-10.994834,0 -6.413667,3.784101 -10.994834,3.243473c-4.581167,-0.540628 5.497334,-4.86521 5.497334,-4.86521c0,0 -10.994834,3.243473 -12.827168,3.243473c-1.8325,0 -10.078667,0.270167 9.162167,-6.486946c0,0 -14.048834,0 -9.162167,-1.621737c4.8865,-1.621737 17.103001,-4.86521 16.492168,-6.486946c-0.611,-1.621737 -13.132668,-1.35157 -9.162334,-3.243473c3.970167,-1.892051 25.654502,-8.919625 20.157168,-9.730567c-5.4975,-0.810795 -13.438168,-1.081109 -9.162334,-3.243473c4.275834,-2.162365 56.806337,-7.297741 64.136338,-12.973893c7.329834,-5.676152 26.265335,-22.163684 31.151836,-22.704312c4.886667,-0.540775 0,-4.595043 -3.664834,-3.243621c-3.665,1.35157 -7.0245,-0.810795 -5.4975,-9.73042c1.527167,-8.919478 -15.717334,19.559497 -25.654502,9.73042c-5.192,-5.135376 -1.221667,-8.919478 -7.329834,-8.108683c-6.108167,0.810942 -5.802834,-5.946318 -7.329834,-3.243473c-1.527,2.702845 -14.354334,19.460987 -20.157168,17.83925c-5.802834,-1.621737 -1.527,-2.702845 -5.4975,-3.243473c-3.970334,-0.540775 -6.719,-1.621737 -7.329834,-4.865357c-0.610833,-3.243473 -4.275667,2.162512 -5.497334,-3.243473c-1.221667,-5.405838 -2.137833,-12.162951 -7.329834,-6.486946c-5.192167,5.676152 -7.024667,1.892051 -7.330001,0c-0.305333,-1.891903 -11.300167,1.081109 -10.994667,-4.86521c0.305167,-5.946318 -10.689501,1.892051 -9.162501,-4.86521c1.527167,-6.757113 -9.288167,-0.915794 -7.329834,-6.486946c4.275834,-12.163098 -14.659668,-1.081109 -12.827168,-6.486946c1.832333,-5.405838 -8.857001,-1.081109 -7.330001,-6.486946c1.527167,-5.405838 -10.168667,-3.528239 -9.162334,-8.108683c2.137833,-9.730567 -10.994667,-2.973307 -9.162334,-11.352304c1.8325,-8.37885 -8.339167,-0.056186 -7.329834,-6.486946c1.527167,-9.73042 -13.089334,-6.196871 -9.162334,-12.973893c6.108334,-10.541362 -6.280834,-6.009878 -3.665,-11.352156c3.970334,-8.108683 -25.509502,0.899572 -18.324668,-12.97404c3.359667,-6.486946 -19.952668,-10.805924 -9.162334,-16.217366c18.324668,-9.189792 -28.097669,-4.595043 -5.497334,-19.460839c21.073335,-8.649311 22.364668,-9.46394 -3.665,-8.108683c-10.384001,0.540628 -25.960002,-12.163098 -10.994667,-12.97404c14.965168,-0.810795 45.50617,-7.297741 10.994667,-9.73042c-34.511336,-2.432531 -35.733003,-13.514521 -21.989502,-12.973893c13.743501,0.540628 67.495838,0.540628 53.141504,-3.243473c-14.354334,-3.784101 -80.046672,-13.031996 -54.974004,-22.704312c11.911001,-4.595043 95.84084,19.836595 71.466172,3.243473c-3.970167,-2.702845 -42.757503,-12.433412 -56.806504,-25.947933c-14.048834,-13.514521 -11.300167,-15.406571 -3.664834,-12.973893c7.635334,2.432531 96.204007,38.110884 82.461006,25.947785c-2.443334,-2.162365 -53.141504,-23.515254 -60.471504,-42.165151c-7.329834,-18.650045 -0.305333,-13.784835 5.4975,-8.10883c5.802667,5.676152 89.142173,59.879494 75.131172,42.165299c-4.275834,-5.405838 -41.535836,-27.028894 -49.47667,-48.652245c-7.940834,-21.623204 -1.8325,-15.676738 3.665,-9.73042c5.497334,5.946318 90.41834,86.960887 76.963505,58.382665c-3.054,-6.486946 -29.930335,-26.758728 -32.984336,-45.408772c-3.054,-18.650045 4.8865,-11.622323 9.162334,-4.86521c4.275834,6.75726 64.441838,90.817544 65.968838,76.221915c0,0 0.3055,0.270167 1.8325,0c1.527,-0.270314 -1.221667,-7.838516 1.8325,-6.486946c0,0 1.221667,-5.946318 3.664834,-4.865357c2.443334,1.081109 4.886667,0.270314 5.4975,-6.486946c0.610667,-6.757113 18.630001,1.081109 23.822002,35.678353c0,0 3.665,3.509363 3.665,11.352156c0,4.054415 21.989502,23.785568 34.816836,22.70446c12.827334,-1.081109 31.152002,22.704312 36.649336,24.326049c5.497334,1.621737 17.713835,11.352156 36.649336,1.621737c18.935501,-9.73042 37.565669,-12.973893 21.989668,-14.595629c-15.576001,-1.621737 -12.521834,-7.027574 -5.497334,-8.108683c7.024334,-1.081109 37.565503,-1.621737 27.487002,-6.486946c-10.078667,-4.865357 -18.784835,-30.859006 -5.4975,-24.326196c5.4975,2.702845 25.020835,26.72068 21.989668,9.73042c-0.916333,-5.135376 -12.827334,-11.352156 -9.162334,-29.191259c3.664834,-17.83925 8.746167,-3.646953 9.162334,-1.621737c0.610833,2.973159 15.427168,39.887022 18.324668,21.082576c0.916167,-5.946318 -6.719,-13.784835 -3.665,-35.678353c3.054,-21.89337 7.329834,0 7.329834,0c0,0 8.714001,22.420431 7.330001,34.056616c-0.611,5.135524 7.940667,3.243473 7.329834,-6.486946c-0.611,-9.73042 -5.192,-31.083309 -1.8325,-30.813143c3.359667,0.270314 13.425501,14.475441 10.994834,25.947933c-0.916333,4.324582 13.132668,8.649311 -1.8325,17.839103c-14.965001,9.189792 -31.152002,27.56967 -31.152002,27.56967c0,0 3.620667,11.878479 -14.659668,17.839103c-11.605667,3.784101 -1.8325,11.352156 -1.8325,11.352156z" stroke-opacity="null" stroke-width="1.5" fill="url(#svg_3)"/>
  <path id="svg_5" d="m288.759392,89.402925c4.716947,7.865474 5.637814,10.25411 4.078221,10.578495c-3.046559,0.633679 -2.434348,4.257784 1.829822,10.831972c5.347725,8.244756 15.822281,13.307787 25.661117,12.403683c3.818868,-0.350924 8.136267,-1.075144 9.594221,-1.6094c1.457946,-0.534263 0.563293,0.461009 -1.98812,2.211699c-12.76364,8.757944 -28.5273,8.147881 -41.103275,-1.590707c-5.014278,-3.882972 -11.913145,-15.227935 -11.913145,-19.590803c0,-1.235971 -1.137386,-2.433579 -2.527521,-2.661336c-2.273405,-0.372473 -1.968098,-1.353206 3.036699,-9.754709c3.060324,-5.137336 5.941113,-9.709113 6.401758,-10.159502c0.460652,-0.450389 3.579251,3.752881 6.930227,9.340606l-0.000003,0.000002zm40.546224,15.163667c-4.71695,-7.865472 -5.637814,-10.254117 -4.078229,-10.578495c3.046559,-0.633668 2.43435,-4.257782 -1.829814,-10.831972c-5.347728,-8.244758 -15.822294,-13.307789 -25.661124,-12.403687c-3.818868,0.350919 -8.13626,1.075152 -9.594211,1.609411c-1.457954,0.534252 -0.563298,-0.461016 1.988115,-2.211703c12.763642,-8.757949 28.527302,-8.14789 41.103278,1.590712c5.01428,3.882958 11.913142,15.227931 11.913142,19.59079c0,1.23598 1.137396,2.433579 2.527516,2.661336c2.273415,0.37248 1.968101,1.353206 -3.036689,9.754713c-3.060322,5.137329 -5.941118,9.709109 -6.401758,10.159502c-0.460655,0.450389 -3.579251,-3.752877 -6.930227,-9.340603l0,-0.000002z" fill-opacity="null" stroke-opacity="null" stroke-width="1.5" stroke="#000" fill="url(#svg_3)"/>
 </g>
</svg>